<?xml version="1.0" encoding="UTF-8"?>
<svg id="Capa_2" data-name="Capa 2" xmlns="http://www.w3.org/2000/svg" viewBox="0 0 52.81 52.81">
  <defs>
    <style>
      .cls-1 {
        fill: #f0881d;
      }

      .cls-2 {
        fill: #fff;
      }
    </style>
  </defs>
  <g id="Capa_1-2" data-name="Capa 1">
    <g>
      <circle class="cls-1" cx="26.4" cy="26.4" r="26.4"/>
      <path class="cls-2" d="M33.67,25.23c1.29-3.53-3.29-4.7-3.29-4.7l.71-2.85-1.72-.46-.68,2.79-1.35-.34.65-2.73-1.69-.49-.77,2.86-3.44-.89-.46,1.87,1.48.4c.42.12.67.55.56.98l-1.97,7.72c-.07.28-.36.46-.65.38l-1.33-.33-.82,2,3.44.86-.74,2.79,1.75.5.64-2.86,1.42.37-.74,2.79,1.78.46.71-2.85s.21.03,1.44.15c2.58.28,3.75-.65,4.46-2.21,1.04-2.4.03-3.56-1.42-4.49.46-.12,1.54-.43,2.03-1.72ZM29.88,30.02c-.44,2-4.1.95-5.27.6l.95-3.79c1.06.13,4.85.79,4.32,3.19ZM30.42,24.44c-.42,1.38-1.95,1.41-4.43.67l.86-3.41s4.21.57,3.57,2.74Z"/>
    </g>
  </g>
</svg>