<svg width="76" height="88" viewBox="0 0 76 88" fill="none" xmlns="http://www.w3.org/2000/svg">
<g clip-path="url(#clip0_54_105)">
<path d="M57.03 44.1899C47.23 45.6399 39.44 53.23 37.68 62.93C35.92 53.24 28.13 45.6399 18.33 44.1899C28.13 42.7299 35.92 35.14 37.68 25.45C39.44 35.14 47.23 42.7399 57.03 44.1899Z" fill="#6032EF"/>
<path d="M75.36 17.8V31.11H59.66V17.35C59.66 16.44 58.93 15.71 58.02 15.71H18.01C17.11 15.71 16.38 16.44 16.38 17.35V42.45C16.23 42.47 16.09 42.47 15.94 42.47C7.14 42.47 0 33 0 21.33C0 17.85 0.63 14.57 1.76 11.68C1.81 11.54 1.87 11.39 1.93 11.25C2.17 10.65 2.44 10.07 2.73 9.51C2.79 9.39 2.85 9.27 2.92 9.15C5.54 4.45 10.24 1.05 15.77 0.2C15.77 0.19 15.8 0.19 15.81 0.19C16.68 0.07 17.57 0 18.48 0H57.56C67.39 0 75.36 7.97 75.36 17.8Z" fill="#6032EF"/>
<path d="M0 70.0999V56.7899H15.7V70.5499C15.7 71.4599 16.43 72.1899 17.34 72.1899H57.35C58.25 72.1899 58.98 71.4599 58.98 70.5499V45.4499C59.13 45.4299 59.27 45.4299 59.42 45.4299C68.22 45.4299 75.36 54.8999 75.36 66.5699C75.36 70.0499 74.73 73.3299 73.6 76.2199C73.55 76.3599 73.49 76.5099 73.43 76.6499C73.19 77.2499 72.92 77.8299 72.63 78.3899C72.57 78.5099 72.51 78.6299 72.44 78.7499C69.82 83.4499 65.12 86.8499 59.59 87.6999C59.59 87.7099 59.56 87.7099 59.55 87.7099C58.68 87.8299 57.79 87.8999 56.88 87.8999H17.8C7.97 87.8999 0 79.9299 0 70.0999Z" fill="#6032EF"/>
</g>
<defs>
<clipPath id="clip0_54_105">
<rect width="75.36" height="87.9" fill="white"/>
</clipPath>
</defs>
</svg>
