<?xml version="1.0" encoding="UTF-8"?>
<svg id="Capa_2" data-name="Capa 2" xmlns="http://www.w3.org/2000/svg" viewBox="0 0 108.7 38.68">
  <defs>
    <style>
      .cls-1 {
        fill: #fff;
      }
    </style>
  </defs>
  <g id="Capa_1-2" data-name="Capa 1">
    <g>
      <path class="cls-1" d="M11.19,15.86l6.87,3.94c1.07.62,1.73,1.76,1.73,3v10.15c0,3.16-2.56,5.73-5.73,5.73H5.72c-3.16,0-5.72-2.56-5.72-5.72v-7.91c0-.16.13-.29.29-.29h6.84c.16,0,.29.13.29.29v4.49c0,.52.15,1,.41,1.41.46.73,1.28,1.21,2.21,1.21h1.21c1.04,0,1.88-.84,1.88-1.88v-3.57c0-.81-.43-1.55-1.13-1.95h0s-.19-.11-.19-.11l-3.16-1.81-6.9-3.96c-1.07-.62-1.74-1.76-1.74-3V5.95C0,2.79,2.56.23,5.73.23h8.34c3.16,0,5.72,2.56,5.72,5.72v7.32c0,.16-.13.29-.29.29h-6.1c-.16,0-.29-.13-.29-.29v-4.01c0-.53-.15-1.02-.43-1.43-.46-.72-1.27-1.2-2.19-1.2h-1.21c-1.04,0-1.88.84-1.88,1.88v3.88c0,.81.43,1.55,1.13,1.95l2.65,1.52Z"/>
      <path class="cls-1" d="M56.97.23h-6c-3.84,0-6.95,3.11-6.95,6.95v24.55c0,3.84,3.11,6.95,6.95,6.95h6c3.84,0,6.95-3.11,6.95-6.95V7.18c0-3.84-3.11-6.95-6.95-6.95ZM56.09,29.96c0,1.17-.96,2.12-2.12,2.12s-2.12-.95-2.12-2.12V9.32c0-.58.24-1.11.62-1.49.39-.38.92-.62,1.5-.62,1.16,0,2.12.95,2.12,2.11v20.64Z"/>
      <polygon class="cls-1" points="42.05 .23 42.05 7.83 36.04 7.83 36.04 38.68 27.41 38.68 27.41 7.83 21.52 7.83 21.52 .23 42.05 .23"/>
      <path class="cls-1" d="M84.55,19.81l.23-.21c1.1-.4,1.98-1.25,2.4-2.34.19-.46.29-.96.29-1.49V6.06c0-1.2-.43-2.39-1.28-3.25,0,0,0,0-.01-.01-1.66-1.65-3.86-2.64-6.18-2.78-.2-.01-.4-.02-.6-.02h-12.77v38.68h8.73v-14.96h1.86l4.43,14.96h7.34v-5.6l-4.44-13.27ZM75.27,15.75v-6.87c0-1.15.92-2.1,2.08-2.11.15,0,.3,0,.45.04.42.09.78.29,1.07.58.38.38.62.91.62,1.49v6.87c0,1.02-.72,1.87-1.69,2.07-.13.03-.28.04-.42.04-1.16,0-2.11-.94-2.11-2.11Z"/>
      <polygon class="cls-1" points="99.58 8.47 99.58 15.02 107.99 15.02 107.99 23.41 99.58 23.41 99.58 30.29 108.7 30.29 108.7 38.68 91.2 38.68 91.2 .08 108.7 .08 108.7 8.47 99.58 8.47"/>
    </g>
  </g>
</svg>