<svg width="464" height="455" viewBox="0 0 464 455" fill="none" xmlns="http://www.w3.org/2000/svg">
<g clip-path="url(#clip0_78_66)">
<path d="M247.819 137.184H64.9632C59.2491 137.184 54.6169 141.821 54.6169 147.542V251.663C54.6169 257.384 59.2491 262.021 64.9632 262.021H247.819C253.533 262.021 258.165 257.384 258.165 251.663V147.542C258.165 141.821 253.533 137.184 247.819 137.184Z" fill="white"/>
<path d="M246.703 144.353H66.0797C63.4181 144.353 61.2605 146.513 61.2605 149.177V244.031C61.2605 246.696 63.4181 248.856 66.0797 248.856H246.703C249.364 248.856 251.522 246.696 251.522 244.031V149.177C251.522 146.513 249.364 144.353 246.703 144.353Z" fill="#5F57FF"/>
<path d="M176.484 289.36H136.298L141.77 260.604H171.012L176.484 289.36ZM139.592 286.634H173.217L168.779 263.329H144.057L139.619 286.634H139.592Z" fill="white"/>
<path d="M218.169 297.455H94.6406V287.506H218.169V297.455ZM97.3633 294.729H215.446V290.232H97.3633V294.729Z" fill="white"/>
<path d="M59.0549 348.071C42.8005 348.48 29.7316 361.7 29.5138 378.026C29.296 361.7 16.2271 348.48 -0.0273438 348.071C16.2271 347.662 29.296 334.443 29.5138 318.116C29.7044 334.443 42.8005 347.662 59.0549 348.071Z" fill="white"/>
<path d="M44.5704 134.431C37.0286 134.622 30.957 140.755 30.8753 148.332C30.7664 140.755 24.722 134.622 17.1802 134.431C24.722 134.24 30.7936 128.108 30.8753 120.53C30.957 128.108 37.0286 134.24 44.5704 134.431Z" fill="white"/>
<path d="M455.696 271.288C448.154 271.479 442.082 277.612 442.001 285.189C441.892 277.612 435.848 271.479 428.306 271.288C435.848 271.097 441.919 264.965 442.001 257.387C442.082 264.965 448.154 271.097 455.696 271.288Z" fill="white"/>
<path d="M344.746 71.713C337.205 71.9038 331.133 78.0366 331.051 85.614C330.942 78.0366 324.898 71.9038 317.356 71.713C324.898 71.5222 330.97 65.3894 331.051 57.812C331.133 65.3894 337.205 71.5222 344.746 71.713Z" fill="white"/>
<path d="M44.7338 277.775C40.6498 277.885 37.3553 281.21 37.3008 285.326C37.2464 281.21 33.9519 277.885 29.8679 277.775C33.9519 277.666 37.2464 274.341 37.3008 270.253C37.3553 274.368 40.6498 277.694 44.7338 277.775Z" fill="white"/>
<path d="M90.012 441.099C82.4702 441.29 76.3986 447.423 76.3169 455C76.208 447.423 70.1637 441.29 62.6218 441.099C70.1637 440.908 76.2353 434.775 76.3169 427.198C76.3986 434.775 82.4702 440.908 90.012 441.099Z" fill="white"/>
<path d="M421.145 370.04C417.769 370.122 415.073 372.875 415.019 376.255C414.964 372.875 412.269 370.122 408.893 370.04C412.269 369.958 414.964 367.205 415.019 363.826C415.073 367.205 417.769 369.958 421.145 370.04Z" fill="white"/>
<path d="M405.435 19.8158H385.886V0H363.832V19.8158H324.707H304.914L283.976 41.8939H326.967H344.284H363.832V296.174H385.886V41.8939H425.011V19.8158H405.462H405.435ZM421.09 22.1054L413.984 29.2194L406.851 22.1054H421.118H421.09ZM401.542 22.1054L394.435 29.2194L387.302 22.1054H401.569H401.542ZM368.161 39.1682L374.859 32.463L381.53 39.1682H368.161ZM366.337 37.5601V23.9043L373.144 30.7186L366.337 37.5328V37.5601ZM376.575 30.7186L383.381 23.9043V37.5601L376.575 30.7458V30.7186ZM374.859 29.0014L367.944 22.0781H381.72L374.832 29.0014H374.859ZM381.53 41.8939L374.859 48.5991L368.161 41.8939H381.53ZM383.599 43.066V57.3486L376.466 50.2073L383.599 43.0932V43.066ZM385.886 23.9043L392.802 30.8549L385.886 37.7781V23.9043ZM383.599 18.1804L376.466 11.0391L383.599 3.925V18.2076V18.1804ZM381.993 2.28958L374.887 9.4309L367.753 2.28958H382.02H381.993ZM366.119 3.89774L373.226 11.0118L366.119 18.1531V3.89774ZM374.859 12.6472L381.775 19.5705H367.916L374.859 12.6472ZM362.417 22.1054L355.31 29.2194L348.177 22.1054H362.444H362.417ZM342.868 22.1054L335.762 29.2194L328.628 22.1054H342.895H342.868ZM323.074 22.1054L315.968 29.2194L308.834 22.1054H323.101H323.074ZM289.313 39.6043L304.941 23.1411V39.6043H289.313ZM307.228 37.9962V23.7135L307.309 23.7953L314.361 30.8821L307.309 37.9417L307.228 38.0234V37.9962ZM308.807 39.6043L315.94 32.463L323.047 39.6043H308.78H308.807ZM324.707 37.9962L317.574 30.8821L324.707 23.7408V38.0234V37.9962ZM327.022 23.7135L334.128 30.8549L327.022 37.9689V23.6863V23.7135ZM328.601 39.6043L335.734 32.463L342.841 39.6043H328.574H328.601ZM337.341 30.8549L344.284 23.9043V37.7781L337.341 30.8549ZM346.761 23.9043L353.677 30.8549L346.761 37.7781V23.9043ZM348.177 39.6043L355.31 32.463L362.417 39.6043H348.15H348.177ZM356.89 30.8549L363.832 23.9043V37.7781L356.89 30.8549ZM373.253 50.18L366.147 57.3213V43.0387L373.253 50.1528V50.18ZM366.119 62.6364L373.226 69.7505L366.119 76.8918V62.6092V62.6364ZM366.119 82.2342L373.226 89.3482L366.119 96.4896V82.2069V82.2342ZM366.119 101.805L373.226 108.919L366.119 116.06V101.777V101.805ZM366.119 121.375L373.226 128.489L366.119 135.631V121.348V121.375ZM366.119 140.946L373.226 148.06L366.119 155.201V140.918V140.946ZM366.119 160.543L373.226 167.657L366.119 174.799V160.516V160.543ZM366.119 180.114L373.226 187.228L366.119 194.369V180.087V180.114ZM366.119 199.684L373.226 206.798L366.119 213.94V199.657V199.684ZM366.119 219.282L373.226 226.396L366.119 233.537V219.255V219.282ZM366.119 238.853L373.226 245.967L366.119 253.108V238.825V238.853ZM366.119 258.423L373.226 265.537L366.119 272.678V258.396V258.423ZM366.119 278.021L373.226 285.135L366.119 292.276V277.993V278.021ZM367.726 293.884L374.859 286.77L381.965 293.884H367.699H367.726ZM383.599 292.276L376.466 285.135L383.599 278.021V292.303V292.276ZM374.859 283.527L367.916 276.576H381.775L374.859 283.527ZM367.916 274.096L374.859 267.172L381.775 274.096H367.916ZM376.466 265.564L383.599 258.45V272.733L376.466 265.592V265.564ZM374.859 263.956L367.916 257.006H381.775L374.859 263.956ZM367.916 254.525L374.859 247.602L381.775 254.525H367.916ZM376.466 245.994L383.599 238.88V253.162L376.466 246.021V245.994ZM374.859 244.386L367.916 237.435H381.775L374.859 244.386ZM367.916 234.955L374.859 228.032L381.775 234.955H367.916ZM376.466 226.396L383.599 219.282V233.565L376.466 226.423V226.396ZM374.859 224.815L367.916 217.865H381.775L374.859 224.815ZM367.916 215.357L374.859 208.434L381.775 215.357H367.916ZM376.466 206.826L383.599 199.712V213.994L376.466 206.853V206.826ZM374.859 205.217L367.916 198.267H381.775L374.859 205.217ZM367.916 195.787L374.859 188.863L381.775 195.787H367.916ZM376.466 187.255L383.599 180.141V194.424L376.466 187.282V187.255ZM374.859 185.647L367.916 178.696H381.775L374.859 185.647ZM367.916 176.216L374.859 169.293L381.775 176.216H367.916ZM376.466 167.657L383.599 160.543V174.826L376.466 167.685V167.657ZM374.859 166.077L367.916 159.126H381.775L374.859 166.077ZM367.916 156.618L374.859 149.695L381.775 156.618H367.916ZM376.466 148.087L383.599 140.973V155.256L376.466 148.114V148.087ZM374.859 146.479L367.916 139.528H381.775L374.859 146.479ZM367.916 137.048L374.859 130.125L381.775 137.048H367.916ZM376.466 128.516L383.599 121.402V135.685L376.466 128.544V128.516ZM374.859 126.908L367.916 119.958H381.775L374.859 126.908ZM367.916 117.477L374.859 110.554L381.775 117.477H367.916ZM376.466 108.919L383.599 101.805V116.087L376.466 108.946V108.919ZM374.859 107.338L367.916 100.387H381.775L374.859 107.338ZM367.916 97.9069L374.859 90.9837L381.775 97.9069H367.916ZM376.466 89.3482L383.599 82.2342V96.5168L376.466 89.3755V89.3482ZM374.859 87.7401L367.916 80.7896H381.775L374.859 87.7401ZM367.916 78.3092L374.859 71.3859L381.775 78.3092H367.916ZM376.466 69.7778L383.599 62.6637V76.9463L376.466 69.805V69.7778ZM374.859 68.1696L367.916 61.2191H381.775L374.859 68.1696ZM367.916 58.7387L374.859 51.8154L381.775 58.7387H367.916ZM387.275 39.6043L394.408 32.463L401.514 39.6043H387.248H387.275ZM396.015 30.8549L402.957 23.9043V37.7781L396.015 30.8549ZM405.435 23.9043L412.351 30.8549L405.435 37.7781V23.9043ZM406.824 39.6043L413.957 32.463L421.063 39.6043H406.796H406.824ZM422.724 37.9689L415.591 30.8549L422.724 23.7135V37.9962V37.9689Z" fill="white"/>
<path d="M312.128 42.9024H259.036V48.0812H312.128V42.9024Z" fill="#5F57FF"/>
<path d="M265.734 48.2175H265.298V181.013H265.734V48.2175Z" fill="white"/>
<path d="M305.349 224.515L266.524 204.073L215.473 207.807L215.283 205.081L267.095 201.292L267.449 201.456L306.629 222.09L305.349 224.515Z" fill="white"/>
<path d="M421.608 295.82H37.6819V297.182H421.608V295.82Z" fill="white"/>
<path d="M255.524 273.741L278.939 250.846L286.481 279.493L255.524 273.741Z" fill="white"/>
<path d="M287.897 280.801L253.4 274.368L279.484 248.883L287.897 280.774V280.801ZM257.648 273.087L285.092 278.184L278.395 252.808L257.648 273.087Z" fill="#5F57FF"/>
<path d="M284.439 248.147C289.115 248.147 292.907 244.352 292.907 239.67C292.907 234.989 289.115 231.193 284.439 231.193C279.762 231.193 275.971 234.989 275.971 239.67C275.971 244.352 279.762 248.147 284.439 248.147Z" fill="white"/>
<path d="M284.439 249.183C279.211 249.183 274.937 244.931 274.937 239.67C274.937 234.41 279.184 230.158 284.439 230.158C289.694 230.158 293.941 234.41 293.941 239.67C293.941 244.931 289.694 249.183 284.439 249.183ZM284.439 232.229C280.328 232.229 276.979 235.582 276.979 239.698C276.979 243.813 280.328 247.166 284.439 247.166C288.55 247.166 291.899 243.813 291.899 239.698C291.899 235.582 288.55 232.229 284.439 232.229Z" fill="#5F57FF"/>
<path d="M208.422 263.902L248.091 225.142L260.888 273.687L208.422 263.902Z" fill="white"/>
<path d="M262.303 274.968L206.298 264.529L248.636 223.153L262.303 274.968ZM210.545 263.275L259.499 272.406L247.574 227.105L210.545 263.275Z" fill="#5F57FF"/>
<path d="M305.54 221.599L216.726 204.727C214.902 204.372 213.132 205.599 212.778 207.398L202.214 263.111C201.86 264.937 203.085 266.709 204.882 267.063L293.696 283.935C295.52 284.29 297.29 283.091 297.644 281.264L308.208 225.551C308.562 223.725 307.337 221.953 305.54 221.599ZM293.914 279.956L206.216 263.302L216.562 208.706L304.26 225.36L293.914 279.956Z" fill="white"/>
<path d="M294.349 285.026C294.077 285.026 293.805 285.026 293.533 284.944L204.719 268.072C203.575 267.854 202.568 267.2 201.914 266.246C201.261 265.265 201.016 264.092 201.234 262.948L211.798 207.235C212.26 204.863 214.548 203.282 216.916 203.746L305.73 220.618C306.874 220.836 307.881 221.49 308.535 222.471C309.188 223.452 309.433 224.624 309.215 225.769L298.651 281.482C298.243 283.581 296.419 285.053 294.349 285.053V285.026ZM216.127 205.681C215.01 205.681 214.03 206.471 213.812 207.589L203.248 263.302C203.139 263.929 203.248 264.556 203.602 265.074C203.956 265.592 204.501 265.946 205.1 266.055L293.914 282.927C295.166 283.172 296.419 282.327 296.664 281.046L307.228 225.333C307.337 224.733 307.228 224.107 306.847 223.561C306.493 223.044 305.948 222.689 305.349 222.58L216.535 205.708C216.399 205.681 216.236 205.654 216.099 205.654L216.127 205.681ZM294.731 281.155L205.045 264.12L215.773 207.507L305.458 224.543L294.731 281.155ZM207.414 262.484L293.097 278.757L303.062 226.178L217.379 209.906L207.414 262.484Z" fill="#5F57FF"/>
<path d="M271.942 198.621C271.996 202.219 269.165 205.19 265.571 205.245C265.053 205.245 264.563 205.19 264.073 205.081L263.284 202.328C263.937 202.764 264.699 202.955 265.516 202.955C267.83 202.928 269.682 200.993 269.655 198.649C269.627 196.904 268.511 195.405 266.959 194.805C266.469 194.614 265.952 194.505 265.38 194.505C265.135 194.505 264.89 194.533 264.672 194.587V192.407C261.541 191.998 259.145 189.381 259.091 186.192C259.036 182.649 261.868 179.759 265.38 179.678C268.892 179.596 271.806 182.431 271.86 185.974C271.914 189.027 269.818 191.616 266.932 192.27V192.407C269.764 193.061 271.887 195.596 271.942 198.594V198.621Z" fill="#5F57FF"/>
<path d="M82.5791 385.658V400.731C82.5791 403.103 83.1508 404.875 84.2671 405.992C85.4107 407.137 86.9354 407.709 88.8957 407.709C90.856 407.709 92.3807 407.137 93.497 406.019C94.6133 404.902 95.1579 403.13 95.1579 400.731V385.658H97.5538V400.677C97.5538 403.702 96.7643 405.992 95.1306 407.518C93.5243 409.045 91.4278 409.808 88.8685 409.808C86.3091 409.808 84.2127 409.045 82.6063 407.518C80.9999 405.992 80.1831 403.702 80.1831 400.677V385.658H82.5791Z" fill="white"/>
<path d="M117.103 392.636C118.518 394.026 119.226 396.016 119.226 398.633V409.59H116.858V398.905C116.858 396.861 116.34 395.335 115.333 394.244C114.326 393.181 112.937 392.636 111.167 392.636C109.397 392.636 107.927 393.209 106.865 394.353C105.804 395.498 105.259 397.161 105.259 399.396V409.59H102.863V390.892H105.259V394.081C105.858 392.936 106.702 392.064 107.818 391.464C108.935 390.864 110.214 390.565 111.603 390.565C113.835 390.565 115.66 391.246 117.075 392.636H117.103Z" fill="white"/>
<path d="M124.59 395.171C125.353 393.726 126.442 392.609 127.776 391.818C129.137 391.028 130.662 390.646 132.377 390.646C134.092 390.646 135.508 391.055 136.815 391.846C138.149 392.636 139.102 393.672 139.728 394.953V384.268H142.124V409.59H139.728V405.42C139.157 406.728 138.231 407.791 136.924 408.609C135.617 409.426 134.092 409.863 132.35 409.863C130.607 409.863 129.11 409.454 127.748 408.663C126.387 407.873 125.325 406.728 124.563 405.283C123.801 403.811 123.419 402.122 123.419 400.214C123.419 398.306 123.801 396.616 124.59 395.171ZM138.83 396.261C138.204 395.117 137.387 394.244 136.325 393.617C135.263 392.99 134.092 392.691 132.813 392.691C131.533 392.691 130.308 392.99 129.246 393.59C128.184 394.19 127.367 395.035 126.768 396.18C126.169 397.324 125.87 398.66 125.87 400.214C125.87 401.767 126.169 403.076 126.768 404.248C127.367 405.392 128.211 406.292 129.246 406.892C130.281 407.491 131.479 407.791 132.813 407.791C134.147 407.791 135.263 407.491 136.325 406.864C137.387 406.237 138.231 405.365 138.83 404.22C139.456 403.076 139.756 401.767 139.756 400.241C139.756 398.714 139.456 397.406 138.83 396.261Z" fill="white"/>
<path d="M164.45 401.168H148.958C149.013 402.585 149.367 403.784 149.993 404.793C150.619 405.801 151.409 406.564 152.416 407.055C153.423 407.573 154.512 407.818 155.71 407.818C157.262 407.818 158.569 407.437 159.631 406.701C160.693 405.965 161.401 404.929 161.728 403.648H164.26C163.797 405.474 162.817 406.973 161.346 408.118C159.876 409.263 157.97 409.835 155.71 409.835C153.968 409.835 152.389 409.454 151 408.663C149.612 407.873 148.523 406.755 147.733 405.311C146.943 403.866 146.562 402.176 146.562 400.214C146.562 398.251 146.943 396.561 147.733 395.117C148.495 393.645 149.584 392.527 150.973 391.764C152.362 391.001 153.941 390.592 155.738 390.592C157.535 390.592 159.059 390.973 160.393 391.764C161.728 392.554 162.762 393.59 163.47 394.899C164.178 396.207 164.559 397.679 164.559 399.26C164.559 400.077 164.559 400.704 164.478 401.14L164.45 401.168ZM161.238 395.662C160.666 394.68 159.876 393.945 158.869 393.427C157.861 392.909 156.772 392.663 155.574 392.663C153.805 392.663 152.28 393.236 151.027 394.381C149.775 395.525 149.067 397.134 148.931 399.205H162.054C162.054 397.815 161.809 396.616 161.21 395.634L161.238 395.662Z" fill="white"/>
<path d="M173.68 391.519C174.769 390.892 176.103 390.565 177.655 390.565V393.072H177.002C175.259 393.072 173.871 393.536 172.836 394.462C171.774 395.389 171.257 396.97 171.257 399.151V409.59H168.861V390.892H171.257V394.217C171.774 393.045 172.591 392.146 173.68 391.519Z" fill="white"/>
<path d="M191.078 391.301C192.113 389.447 193.501 388.002 195.271 386.939C197.041 385.876 199.028 385.386 201.234 385.386C203.902 385.386 206.189 386.013 208.095 387.294C210.001 388.575 211.389 390.347 212.261 392.663H209.456C208.776 391.055 207.741 389.774 206.325 388.875C204.909 387.975 203.221 387.512 201.234 387.512C199.491 387.512 197.912 387.921 196.496 388.738C195.081 389.556 193.991 390.728 193.202 392.282C192.412 393.835 192.004 395.607 192.004 397.651C192.004 399.696 192.412 401.467 193.202 402.994C193.991 404.52 195.108 405.692 196.496 406.51C197.885 407.328 199.464 407.736 201.234 407.736C203.221 407.736 204.909 407.273 206.325 406.374C207.714 405.474 208.776 404.22 209.456 402.612H212.261C211.389 404.902 210.001 406.673 208.095 407.927C206.189 409.181 203.902 409.808 201.261 409.808C199.083 409.808 197.095 409.29 195.298 408.254C193.501 407.219 192.113 405.774 191.105 403.921C190.098 402.067 189.553 399.968 189.553 397.624C189.553 395.28 190.071 393.181 191.105 391.301H191.078Z" fill="white"/>
<path d="M220.429 408.691C219.013 407.9 217.924 406.783 217.107 405.338C216.29 403.893 215.882 402.203 215.882 400.241C215.882 398.278 216.29 396.616 217.107 395.171C217.924 393.726 219.04 392.609 220.456 391.818C221.872 391.028 223.451 390.646 225.221 390.646C226.99 390.646 228.57 391.028 229.985 391.818C231.401 392.609 232.517 393.726 233.334 395.171C234.151 396.616 234.559 398.306 234.559 400.241C234.559 402.176 234.151 403.839 233.334 405.311C232.517 406.783 231.374 407.9 229.958 408.691C228.515 409.481 226.936 409.863 225.166 409.863C223.396 409.863 221.845 409.481 220.429 408.691ZM228.597 406.946C229.631 406.374 230.503 405.556 231.156 404.411C231.81 403.294 232.136 401.904 232.136 400.241C232.136 398.578 231.81 397.215 231.183 396.071C230.557 394.926 229.713 394.108 228.651 393.536C227.589 392.963 226.473 392.691 225.221 392.691C223.968 392.691 222.852 392.963 221.79 393.536C220.728 394.108 219.911 394.926 219.285 396.071C218.659 397.215 218.359 398.578 218.359 400.241C218.359 401.904 218.659 403.266 219.285 404.411C219.911 405.556 220.755 406.374 221.79 406.946C222.825 407.518 223.968 407.791 225.193 407.791C226.419 407.791 227.562 407.518 228.624 406.946H228.597Z" fill="white"/>
<path d="M253.183 392.636C254.598 394.026 255.306 396.016 255.306 398.633V409.59H252.937V398.905C252.937 396.861 252.42 395.335 251.413 394.244C250.405 393.181 249.017 392.636 247.247 392.636C245.477 392.636 244.007 393.209 242.945 394.353C241.883 395.498 241.339 397.161 241.339 399.396V409.59H238.943V390.892H241.339V394.081C241.938 392.936 242.782 392.064 243.898 391.464C245.014 390.864 246.294 390.565 247.683 390.565C249.915 390.565 251.739 391.246 253.155 392.636H253.183Z" fill="white"/>
<path d="M261.786 408.363C260.425 407.382 259.662 406.019 259.499 404.302H261.949C262.058 405.365 262.548 406.21 263.447 406.864C264.345 407.518 265.516 407.846 266.986 407.846C268.293 407.846 269.301 407.546 270.036 406.919C270.771 406.292 271.152 405.529 271.152 404.629C271.152 404.002 270.934 403.457 270.526 403.048C270.118 402.639 269.6 402.312 268.974 402.067C268.348 401.822 267.504 401.576 266.415 401.304C265.026 400.95 263.91 400.568 263.039 400.214C262.167 399.859 261.432 399.314 260.833 398.578C260.234 397.842 259.935 396.888 259.935 395.689C259.935 394.789 260.207 393.945 260.751 393.154C261.296 392.364 262.086 391.764 263.066 391.301C264.073 390.837 265.217 390.619 266.496 390.619C268.511 390.619 270.118 391.137 271.343 392.146C272.568 393.154 273.249 394.571 273.33 396.343H270.934C270.853 395.253 270.444 394.353 269.655 393.699C268.865 393.018 267.803 392.691 266.415 392.691C265.217 392.691 264.236 392.963 263.474 393.536C262.712 394.108 262.358 394.817 262.358 395.662C262.358 396.398 262.576 396.997 263.039 397.461C263.474 397.924 264.046 398.306 264.699 398.551C265.353 398.823 266.251 399.096 267.368 399.423C268.702 399.777 269.791 400.132 270.58 400.486C271.37 400.84 272.051 401.331 272.622 401.985C273.194 402.639 273.494 403.539 273.521 404.629C273.521 405.638 273.249 406.537 272.704 407.328C272.16 408.118 271.397 408.745 270.417 409.181C269.437 409.644 268.321 409.863 267.041 409.863C264.89 409.863 263.147 409.372 261.786 408.363Z" fill="white"/>
<path d="M281.145 392.909V404.52C281.145 405.665 281.362 406.455 281.798 406.892C282.234 407.328 282.996 407.546 284.085 407.546H286.263V409.59H283.704C282.016 409.59 280.763 409.208 279.947 408.418C279.13 407.627 278.721 406.346 278.721 404.52V392.909H276.135V390.892H278.721V386.204H281.145V390.892H286.263V392.909H281.145Z" fill="white"/>
<path d="M319.997 390.892V409.59H317.601V406.292C317.057 407.464 316.213 408.336 315.069 408.963C313.926 409.59 312.646 409.89 311.23 409.89C308.997 409.89 307.173 409.208 305.758 407.818C304.342 406.428 303.634 404.438 303.634 401.822V390.892H306.003V401.549C306.003 403.593 306.52 405.12 307.527 406.21C308.535 407.273 309.923 407.818 311.693 407.818C313.463 407.818 314.933 407.246 315.995 406.101C317.057 404.956 317.601 403.294 317.601 401.059V390.892H319.997Z" fill="white"/>
<path d="M295.82 391.519C296.909 390.892 298.243 390.565 299.795 390.565V393.072H299.141C297.399 393.072 296.01 393.536 294.976 394.462C293.914 395.389 293.396 396.97 293.396 399.151V409.59H291V390.892H293.396V394.217C293.914 393.045 294.731 392.146 295.82 391.519Z" fill="white"/>
<path d="M324.326 395.171C325.089 393.726 326.178 392.609 327.539 391.818C328.9 391.028 330.48 390.646 332.222 390.646C334.536 390.646 336.415 391.219 337.912 392.364C339.41 393.508 340.363 395.062 340.799 397.025H338.239C337.912 395.689 337.232 394.626 336.17 393.863C335.108 393.1 333.801 392.718 332.222 392.718C330.97 392.718 329.826 392.99 328.846 393.563C327.839 394.135 327.049 394.98 326.477 396.125C325.905 397.243 325.606 398.633 325.606 400.295C325.606 401.958 325.905 403.321 326.477 404.466C327.049 405.61 327.839 406.455 328.846 407.028C329.853 407.6 330.97 407.873 332.222 407.873C333.801 407.873 335.108 407.491 336.17 406.728C337.232 405.965 337.912 404.902 338.239 403.539H340.799C340.363 405.447 339.41 407.001 337.885 408.173C336.388 409.345 334.482 409.917 332.222 409.917C330.452 409.917 328.9 409.535 327.539 408.745C326.178 407.955 325.089 406.837 324.326 405.392C323.537 403.948 323.156 402.258 323.156 400.295C323.156 398.333 323.537 396.67 324.326 395.226V395.171Z" fill="white"/>
<path d="M348.313 392.909V404.52C348.313 405.665 348.531 406.455 348.967 406.892C349.402 407.328 350.165 407.546 351.254 407.546H353.432V409.59H350.873C349.184 409.59 347.932 409.208 347.115 408.418C346.298 407.627 345.89 406.346 345.89 404.52V392.909H343.303V390.892H345.89V386.204H348.313V390.892H353.432V392.909H348.313Z" fill="white"/>
<path d="M357.353 386.858C356.999 386.503 356.835 386.095 356.835 385.604C356.835 385.113 356.999 384.677 357.353 384.35C357.706 384.023 358.115 383.859 358.578 383.859C359.041 383.859 359.476 384.023 359.803 384.35C360.157 384.677 360.32 385.086 360.32 385.604C360.32 386.122 360.157 386.531 359.803 386.858C359.476 387.212 359.041 387.376 358.578 387.376C358.115 387.376 357.679 387.212 357.353 386.858ZM359.776 390.892V409.59H357.38V390.892H359.776Z" fill="white"/>
<path d="M368.652 408.691C367.236 407.9 366.147 406.783 365.33 405.338C364.513 403.893 364.105 402.203 364.105 400.241C364.105 398.278 364.513 396.616 365.33 395.171C366.147 393.726 367.263 392.609 368.679 391.818C370.095 391.028 371.674 390.646 373.444 390.646C375.213 390.646 376.792 391.028 378.208 391.818C379.624 392.609 380.74 393.726 381.557 395.171C382.374 396.616 382.782 398.306 382.782 400.241C382.782 402.176 382.374 403.839 381.557 405.311C380.74 406.783 379.597 407.9 378.181 408.691C376.738 409.481 375.159 409.863 373.389 409.863C371.619 409.863 370.067 409.481 368.652 408.691ZM376.82 406.946C377.854 406.374 378.726 405.556 379.379 404.411C380.032 403.294 380.359 401.904 380.359 400.241C380.359 398.578 380.032 397.215 379.406 396.071C378.78 394.926 377.936 394.108 376.874 393.536C375.812 392.963 374.696 392.691 373.444 392.691C372.191 392.691 371.075 392.963 370.013 393.536C368.951 394.108 368.134 394.926 367.508 396.071C366.882 397.215 366.582 398.578 366.582 400.241C366.582 401.904 366.882 403.266 367.508 404.411C368.134 405.556 368.978 406.374 370.013 406.946C371.048 407.518 372.191 407.791 373.416 407.791C374.642 407.791 375.785 407.518 376.847 406.946H376.82Z" fill="white"/>
<path d="M401.405 392.636C402.821 394.026 403.529 396.016 403.529 398.633V409.59H401.16V398.905C401.16 396.861 400.643 395.335 399.636 394.244C398.628 393.181 397.24 392.636 395.47 392.636C393.7 392.636 392.23 393.209 391.168 394.353C390.106 395.498 389.562 397.161 389.562 399.396V409.59H387.166V390.892H389.562V394.081C390.161 392.936 391.005 392.064 392.121 391.464C393.237 390.864 394.517 390.565 395.906 390.565C398.138 390.565 399.962 391.246 401.378 392.636H401.405Z" fill="white"/>
<path d="M86.9625 331.063V353.904C86.9625 356.63 87.6704 358.674 89.1135 360.037C90.5293 361.4 92.5168 362.108 95.0489 362.108C97.581 362.108 99.623 361.427 101.039 360.037C102.455 358.674 103.19 356.63 103.19 353.904V331.063H109.071V353.795C109.071 356.712 108.445 359.192 107.165 361.209C105.885 363.226 104.197 364.752 102.073 365.734C99.9497 366.742 97.581 367.233 95.0217 367.233C92.4624 367.233 90.0936 366.742 87.9972 365.734C85.8735 364.725 84.2126 363.226 82.9874 361.209C81.7622 359.192 81.136 356.712 81.136 353.795V331.063H87.017H86.9625Z" fill="white"/>
<path d="M140.409 346.872C139.538 348.48 138.176 349.816 136.298 350.824C134.419 351.833 131.996 352.35 129.028 352.35H122.548V366.878H116.667V331.063H129.028C131.778 331.063 134.092 331.526 135.998 332.48C137.904 333.434 139.32 334.715 140.273 336.323C141.226 337.931 141.688 339.73 141.688 341.747C141.688 343.574 141.253 345.291 140.409 346.899V346.872ZM134.038 346.027C135.127 345.018 135.671 343.574 135.671 341.72C135.671 337.795 133.466 335.833 129.028 335.833H122.548V347.526H129.028C131.261 347.526 132.921 347.008 134.011 346L134.038 346.027Z" fill="white"/>
<path d="M152.607 365.979C150.673 365.134 149.176 363.935 148.087 362.408C146.998 360.855 146.426 359.056 146.426 356.984H152.715C152.852 358.538 153.451 359.792 154.54 360.8C155.629 361.809 157.153 362.299 159.087 362.299C161.02 362.299 162.68 361.809 163.824 360.827C164.968 359.846 165.512 358.592 165.512 357.039C165.512 355.839 165.158 354.858 164.45 354.095C163.742 353.332 162.871 352.759 161.836 352.35C160.802 351.942 159.332 351.505 157.48 351.015C155.139 350.388 153.26 349.761 151.79 349.134C150.319 348.507 149.094 347.499 148.06 346.163C147.025 344.827 146.508 343.029 146.508 340.793C146.508 338.722 147.025 336.923 148.06 335.369C149.094 333.816 150.537 332.644 152.389 331.826C154.24 331.008 156.391 330.599 158.814 330.599C162.272 330.599 165.131 331.472 167.336 333.189C169.542 334.933 170.767 337.305 171.012 340.33H164.532C164.423 339.022 163.824 337.904 162.68 336.977C161.537 336.051 160.067 335.587 158.188 335.587C156.5 335.587 155.139 336.023 154.077 336.868C153.015 337.741 152.47 338.967 152.47 340.575C152.47 341.666 152.797 342.565 153.478 343.274C154.158 343.983 155.002 344.528 156.037 344.937C157.072 345.345 158.46 345.809 160.257 346.272C162.626 346.926 164.559 347.58 166.057 348.235C167.554 348.889 168.806 349.897 169.868 351.26C170.903 352.623 171.448 354.422 171.448 356.711C171.448 358.538 170.957 360.255 169.977 361.863C168.997 363.471 167.581 364.78 165.703 365.761C163.824 366.742 161.619 367.233 159.087 367.233C156.691 367.233 154.512 366.824 152.607 365.979Z" fill="white"/>
<path d="M50.0157 245.067H3.51221V247.793H50.0157V245.067Z" fill="white"/>
<path d="M464 137.375H402.958V140.101H464V137.375Z" fill="white"/>
<path d="M247.138 117.586H129.11V120.312H247.138V117.586Z" fill="white"/>
<path d="M348.885 185.102H281.444V187.828H348.885V185.102Z" fill="white"/>
</g>
<defs>
<clipPath id="clip0_78_66">
<rect width="464" height="455" fill="white"/>
</clipPath>
</defs>
</svg>
