<?xml version="1.0" encoding="UTF-8"?>
<svg id="Capa_2" data-name="Capa 2" xmlns="http://www.w3.org/2000/svg" viewBox="0 0 52.81 52.81">
  <defs>
    <style>
      .cls-1 {
        fill: #2c68bd;
      }

      .cls-2 {
        fill: #fff;
      }
    </style>
  </defs>
  <g id="Capa_1-2" data-name="Capa 1">
    <g>
      <circle class="cls-1" cx="26.4" cy="26.4" r="26.4"/>
      <g>
        <path class="cls-2" d="M30.05,26.24c-.52-.5-1.55-.97-3.1-1.41h0s0-2.4,0-2.4c0,0,.02,0,.02.01.25.15.43.3.55.45.07.09.13.21.2.38.12.26.4.4.68.35l1.66-.28c.38-.07.63-.46.49-.82-.22-.56-.55-1.02-.98-1.39-.6-.5-1.46-.79-2.59-.87v-1.43c0-.16-.13-.28-.28-.28h-.64c-.15,0-.28.12-.28.28v1.43c-1.23.08-2.15.44-2.78,1.09-.64.66-.95,1.48-.95,2.46,0,.71.16,1.33.48,1.83.32.5.69.87,1.12,1.09.42.22,1.14.48,2.14.79.01,0,.03,0,.05.01v2.92s-.04-.02-.05-.03c-.33-.18-.57-.39-.71-.62-.1-.15-.18-.36-.25-.64-.08-.31-.37-.52-.69-.48l-1.84.23c-.38.05-.62.42-.52.79.07.26.16.5.26.71.18.39.44.75.78,1.09.34.33.74.6,1.21.79.46.18,1.04.32,1.77.39.01,0,.03,0,.05,0v1.23c0,.18.15.33.33.33h.45c.18,0,.33-.15.33-.33v-1.23h.02c.62-.03,1.13-.12,1.56-.27.44-.15.84-.4,1.23-.73.39-.33.7-.76.95-1.26.24-.5.37-1.05.37-1.66,0-1.03-.35-1.87-1.03-2.54ZM25.83,24.51s-.03-.01-.05-.02c-.29-.12-.5-.26-.63-.43-.13-.18-.19-.39-.19-.64s.07-.44.19-.61c.12-.16.33-.31.63-.41.02,0,.03-.01.05-.02v2.13ZM27.9,30.02c-.2.24-.51.42-.95.52h0s0-2.66,0-2.66c0,0,.01,0,.02,0,.48.18.8.39.97.6.17.22.25.46.25.71,0,.3-.1.57-.3.81Z"/>
        <path class="cls-2" d="M30.99,15.42v1.24c0,.11.06.2.15.25,3.48,1.74,5.87,5.34,5.87,9.49s-2.39,7.75-5.87,9.49c-.09.05-.15.14-.15.25v1.24c0,.2.21.34.39.26,4.3-1.91,7.31-6.23,7.31-11.24s-3.01-9.33-7.31-11.24c-.19-.08-.39.06-.39.26ZM14.11,26.4c0,5.01,3.01,9.33,7.32,11.24.19.08.39-.06.39-.26v-1.24c0-.11-.06-.2-.15-.25-3.48-1.74-5.88-5.34-5.88-9.49s2.39-7.75,5.88-9.49c.09-.05.15-.14.15-.25v-1.24c0-.2-.21-.34-.39-.26-4.3,1.91-7.32,6.23-7.32,11.24Z"/>
      </g>
    </g>
  </g>
</svg>